<svg width="100" height="50" viewBox="0 0 100 50" fill="none" xmlns="http://www.w3.org/2000/svg">
<g clip-path="url(#clip0)">
<path d="M15.1841 25.0154C14.5513 25.7185 13.6255 26.2849 12.4067 26.7146C11.188 27.1443 9.85205 27.3591 8.39893 27.3591C6.16455 27.3591 4.37939 26.6755 3.04346 25.3083C1.70752 23.9412 0.992676 22.0388 0.898926 19.6013L0.887207 18.1248C0.887207 16.4451 1.18408 14.9802 1.77783 13.7302C2.37158 12.4724 3.21924 11.5076 4.3208 10.8357C5.43018 10.156 6.71143 9.81616 8.16455 9.81616C10.2896 9.81616 11.938 10.3044 13.1099 11.281C14.2896 12.2498 14.9771 13.699 15.1724 15.6287H11.2114C11.0708 14.6755 10.7661 13.9958 10.2974 13.5896C9.82861 13.1833 9.16455 12.9802 8.30518 12.9802C7.27393 12.9802 6.47705 13.4177 5.91455 14.2927C5.35205 15.1677 5.06689 16.4177 5.05908 18.0427V19.074C5.05908 20.7771 5.34814 22.0583 5.92627 22.9177C6.51221 23.7693 7.43018 24.1951 8.68018 24.1951C9.75049 24.1951 10.5474 23.9568 11.0708 23.4802V20.8318H8.21143V18.0076H15.1841V25.0154ZM24.5356 27.1248C24.395 26.8669 24.27 26.488 24.1606 25.988C23.4341 26.9021 22.4185 27.3591 21.1138 27.3591C19.9185 27.3591 18.9028 26.9998 18.0669 26.281C17.231 25.5544 16.813 24.6443 16.813 23.5505C16.813 22.1755 17.3208 21.1365 18.3364 20.4333C19.3521 19.7302 20.8286 19.3787 22.7661 19.3787H23.9849V18.7107C23.9849 17.5466 23.481 16.9646 22.4731 16.9646C21.5356 16.9646 21.0669 17.4255 21.0669 18.3474H17.1177C17.1177 17.1208 17.6372 16.1248 18.6763 15.3591C19.7231 14.5935 21.0552 14.2107 22.6724 14.2107C24.2896 14.2107 25.5669 14.6052 26.5044 15.3943C27.4419 16.1833 27.9224 17.2654 27.9458 18.6404V24.2537C27.9614 25.4177 28.1411 26.3083 28.4849 26.9255V27.1248H24.5356ZM22.063 24.5466C22.5552 24.5466 22.9614 24.4412 23.2817 24.2302C23.6099 24.0193 23.8442 23.781 23.9849 23.5154V21.488H22.8364C21.4614 21.488 20.7739 22.1052 20.7739 23.3396C20.7739 23.699 20.895 23.9919 21.1372 24.2185C21.3794 24.4373 21.688 24.5466 22.063 24.5466ZM41.9146 20.8904C41.9146 22.9685 41.4849 24.5662 40.6255 25.6833C39.7661 26.8005 38.5552 27.3591 36.9927 27.3591C35.7036 27.3591 34.6646 26.8474 33.8755 25.824L33.7114 27.1248H30.1724V9.12476H34.1216V15.4646C34.856 14.6287 35.8052 14.2107 36.9692 14.2107C38.5474 14.2107 39.7661 14.7771 40.6255 15.9099C41.4849 17.0427 41.9146 18.6365 41.9146 20.6912V20.8904ZM37.9536 20.6443C37.9536 19.4255 37.7896 18.5583 37.4614 18.0427C37.1411 17.5193 36.645 17.2576 35.9731 17.2576C35.0825 17.2576 34.4653 17.5974 34.1216 18.2771V23.3162C34.4575 23.988 35.0825 24.324 35.9966 24.324C36.9263 24.324 37.5161 23.8708 37.7661 22.9646C37.8911 22.5193 37.9536 21.7458 37.9536 20.6443ZM51.3364 18.0193L50.0356 17.9255C48.7935 17.9255 47.9966 18.3162 47.645 19.0974V27.1248H43.6958V14.4451H47.3989L47.5278 16.074C48.1919 14.8318 49.1177 14.2107 50.3052 14.2107C50.7271 14.2107 51.0942 14.2576 51.4067 14.3513L51.3364 18.0193ZM56.9263 27.1248H52.9653V14.4451H56.9263V27.1248ZM52.731 11.1755C52.731 10.613 52.9341 10.1521 53.3403 9.79272C53.7466 9.43335 54.2739 9.25366 54.9224 9.25366C55.5708 9.25366 56.0981 9.43335 56.5044 9.79272C56.9106 10.1521 57.1138 10.613 57.1138 11.1755C57.1138 11.738 56.9106 12.199 56.5044 12.5583C56.0981 12.9177 55.5708 13.0974 54.9224 13.0974C54.2739 13.0974 53.7466 12.9177 53.3403 12.5583C52.9341 12.199 52.731 11.738 52.731 11.1755ZM65.5044 27.3591C63.5591 27.3591 61.9849 26.781 60.7817 25.6248C59.5786 24.4607 58.9771 22.949 58.9771 21.0896V20.7615C58.9771 19.4646 59.2153 18.3201 59.6919 17.3279C60.1763 16.3357 60.8794 15.5701 61.8013 15.031C62.7231 14.4841 63.8169 14.2107 65.0825 14.2107C66.8638 14.2107 68.27 14.7654 69.3013 15.8748C70.3325 16.9763 70.8481 18.5154 70.8481 20.4919V22.0271H62.9966C63.1372 22.738 63.4458 23.2966 63.9224 23.7029C64.3989 24.1091 65.0161 24.3123 65.7739 24.3123C67.0239 24.3123 68.0005 23.8748 68.7036 22.9998L70.5083 25.1326C70.0161 25.8123 69.3169 26.3552 68.4106 26.7615C67.5122 27.1599 66.5435 27.3591 65.5044 27.3591ZM65.0591 17.2576C63.9028 17.2576 63.2153 18.0232 62.9966 19.5544H66.981V19.2498C66.9966 18.6169 66.8364 18.1287 66.5005 17.7849C66.1646 17.4333 65.6841 17.2576 65.0591 17.2576ZM76.6138 27.1248H72.6528V9.12476H76.6138V27.1248Z" fill="#E93E34" fill-opacity="0.32"/>
<g filter="url(#filter0_d)">
<ellipse cx="82.3469" cy="16.2627" rx="2.3907" ry="2.42457" fill="#E93E34"/>
</g>
<g filter="url(#filter1_d)">
<path d="M1.65881 21.4562C5.34424 22.9332 7.66728 22.1451 10.2333 19.2784C12.2084 17.0718 13.463 14.3539 13.5604 11.5384C13.5799 10.9753 13.9191 5.60869 12.6997 6.24103C11.5565 6.83385 11.0929 10.132 10.8954 11.1852C10.2217 14.7785 10.0015 18.2041 10.0015 21.8388C10.0015 26.3741 10.0203 30.8997 9.53806 35.4206C9.33615 37.3134 8.90134 39.1856 8.80972 41.0859C8.75422 42.2371 8.42184 40.6009 8.36279 40.3501C7.60504 37.1318 7.21109 33.8561 6.42609 30.6383C6.04095 29.0596 5.72336 27.4108 5.16806 25.8707C4.83558 24.9486 4.8064 25.2067 5.54878 25.8412C6.88724 26.9853 7.83243 27.929 9.86912 27.4305C11.828 26.9509 12.63 24.407 12.9811 22.8983C13.2171 21.8843 13.577 18.8022 13.577 19.8376C13.577 21.4767 13.4265 23.1601 13.9412 24.7523C15.6225 29.9538 17.7484 22.2971 17.7484 20.279C17.7484 18.3672 17.7484 21.4148 17.7484 21.8535C17.7484 23.3178 17.5198 25.3727 18.9733 26.4298C20.0936 27.2447 21.9437 26.6177 22.2177 25.3998C22.5257 24.0306 22.3651 22.2922 21.9197 20.9559C21.8073 20.6187 21.3588 20.6616 21.9197 20.6616C23.9377 20.6616 25.0086 21.4213 25.4952 23.1926C25.6212 23.6515 26.9095 27.1356 28.1106 26.165C29.2738 25.2249 27.848 20.8471 29.3851 20.6763C31.3904 20.4535 32.5351 23.5719 32.7785 24.8701C33.3109 27.7098 33.3977 23.3633 33.6889 22.4715C34.2413 20.7801 35.4075 22.6254 35.8574 23.3691C36.7979 24.9239 36.7587 26.4201 36.8175 24.0166C36.8666 22.005 38.7686 21.2513 40.095 22.9866C40.3924 23.3757 42.7101 27.8756 43.4387 26.7241C44.5757 24.9272 44.2663 22.3289 44.2663 20.3379C44.2663 19.3982 44.2633 21.8785 44.2829 22.1478C44.4019 23.7876 45.4699 26.4298 47.7921 26.4298C48.8494 26.4298 49.5423 23.9006 49.6129 23.1779C49.6512 22.7873 49.6295 21.1789 49.6295 22.5157C49.6295 23.7805 49.3465 25.6443 50.6558 26.4887C54.0184 28.6573 54.6947 22.9182 54.6947 21.1031C54.6947 20.6874 54.4368 19.4001 54.8272 19.0724C56.0336 18.0595 58.3243 20.1783 58.8661 20.9853C59.9596 22.6142 59.5513 24.5805 60.5876 26.165C61.4089 27.4207 61.3742 25.6576 60.8193 25.1644C60.0121 24.4468 58.8979 24.2959 57.8564 24.0902C57.3994 23.9999 60.0696 23.8278 60.3062 23.8106C60.8218 23.7732 66.5397 22.9977 65.9839 22.1331C65.7256 21.7313 64.6379 21.7211 64.1962 21.7211C61.8349 21.7211 60.2722 26.2757 62.8057 26.6947C64.3459 26.9494 65.4425 25.0382 65.6528 23.9577C65.8112 23.1447 65.719 21.9604 65.719 23.5752C65.719 24.2384 65.5202 26.3563 66.9109 26.1797C68.0768 26.0316 68.0142 22.4041 68.2682 21.6034C68.7543 20.0714 69.8978 19.3377 71.165 20.7646C71.6879 21.3535 70.5819 21.1812 70.1884 21.3091C69.486 21.5372 68.9608 22.1059 68.5662 22.6481C67.5406 24.0571 67.8776 25.5378 68.6324 26.989C70.1138 29.8373 74.7849 28.3719 76.015 26.0178C77.8413 22.5228 76.477 18.6627 76.4454 15.0111C76.4365 13.9814 76.5504 12.9032 76.4289 11.8768C76.369 11.3711 75.9354 13.5181 75.9157 13.7162C75.6404 16.4817 75.5516 19.2258 75.5516 22.0007C75.5516 23.1756 74.462 30.134 76.5613 30.756C76.7941 30.825 76.7416 28.9505 76.7434 28.8137C76.7647 27.1225 76.8896 25.4226 77.0413 23.737C77.1467 22.5658 77.5686 21.5887 78.5973 23.0307C79.0496 23.6647 81.776 27.8017 82.57 25.3704C82.9548 24.1922 82.6335 20.4663 82.7025 21.6917C82.8033 23.485 84.6335 27.4601 87.3042 26.4593C88.7836 25.9049 90.7012 23.8737 89.5554 22.5157" stroke="#555454" stroke-width="2" stroke-linecap="round" stroke-linejoin="round"/>
</g>
</g>
<defs>
<filter id="filter0_d" x="75.9562" y="13.8381" width="12.7814" height="12.8491" filterUnits="userSpaceOnUse" color-interpolation-filters="sRGB">
<feFlood flood-opacity="0" result="BackgroundImageFix"/>
<feColorMatrix in="SourceAlpha" type="matrix" values="0 0 0 0 0 0 0 0 0 0 0 0 0 0 0 0 0 0 127 0"/>
<feOffset dy="4"/>
<feGaussianBlur stdDeviation="2"/>
<feColorMatrix type="matrix" values="0 0 0 0 0 0 0 0 0 0 0 0 0 0 0 0 0 0 0.25 0"/>
<feBlend mode="normal" in2="BackgroundImageFix" result="effect1_dropShadow"/>
<feBlend mode="normal" in="SourceGraphic" in2="effect1_dropShadow" result="shape"/>
</filter>
<filter id="filter1_d" x="-3.34143" y="5.18933" width="98.2483" height="45.3031" filterUnits="userSpaceOnUse" color-interpolation-filters="sRGB">
<feFlood flood-opacity="0" result="BackgroundImageFix"/>
<feColorMatrix in="SourceAlpha" type="matrix" values="0 0 0 0 0 0 0 0 0 0 0 0 0 0 0 0 0 0 127 0"/>
<feOffset dy="4"/>
<feGaussianBlur stdDeviation="2"/>
<feColorMatrix type="matrix" values="0 0 0 0 0 0 0 0 0 0 0 0 0 0 0 0 0 0 0.25 0"/>
<feBlend mode="normal" in2="BackgroundImageFix" result="effect1_dropShadow"/>
<feBlend mode="normal" in="SourceGraphic" in2="effect1_dropShadow" result="shape"/>
</filter>
<clipPath id="clip0">
<rect width="100" height="50" fill="white"/>
</clipPath>
</defs>
</svg>
